<svg width="262" height="60" viewBox="0 0 262 60" fill="none" xmlns="http://www.w3.org/2000/svg">
<path d="M93.2362 0C90.4451 0 88.5447 1.81288 88.5447 4.55966V20.9305C86.1693 18.8979 82.6655 17.2498 78.2709 17.2498C65.6811 17.2498 59.0892 27.8524 59.0892 38.3451C59.0892 48.8378 65.6811 59.4403 78.2709 59.4403C82.8436 59.4403 86.3474 58.2318 88.7229 55.8695C89.1386 58.012 90.8014 59.4403 93.2362 59.4403C96.0274 59.4403 97.9277 57.6275 97.9277 54.8807V4.55966C97.9277 1.81288 96.0274 0 93.2362 0ZM78.8648 51.5846C71.1446 51.5846 68.4128 44.4429 68.4128 38.2901C68.4128 32.1373 71.1446 24.9957 78.8648 24.9957C86.585 24.9957 89.2573 32.1373 89.2573 38.2901C89.2573 44.388 86.585 51.5846 78.8648 51.5846ZM205.595 24.9408C208.03 24.9408 209.336 25.4901 210.583 26.0944C211.593 26.5339 212.662 27.0283 214.087 27.0283C216.462 27.0283 218.125 25.0506 218.125 23.2378C218.125 19.667 213.077 17.2498 205.595 17.2498C191.639 17.2498 185.344 27.8524 185.344 38.3451C185.344 48.8378 191.58 59.4403 205.595 59.4403C213.671 59.4403 217.888 56.3639 217.888 53.2876C217.888 51.0352 216.344 49.497 214.028 49.497C212.84 49.497 211.949 49.9365 210.999 50.376C209.752 50.9803 208.327 51.6944 205.654 51.6944C197.043 51.6944 194.786 43.3442 194.786 38.4C194.668 33.291 196.984 24.9408 205.595 24.9408ZM38.7198 8.35022C38.0071 6.59228 36.7006 3.46094 32.6624 3.46094C28.6835 3.46094 27.377 6.42747 26.6644 8.18541C26.6644 8.24034 20.0131 24.721 14.7278 37.6858H4.75089C1.24711 37.6858 0 39.7185 0 41.4764C0 43.2893 1.24711 45.267 4.75089 45.267H11.6991C9.8581 49.8266 8.61099 52.903 8.61099 52.903C8.31406 53.6172 7.95774 54.7159 7.95774 55.6498C7.95774 57.4627 9.44239 59.3305 12.2335 59.3305C15.2028 59.3305 16.153 57.5176 16.8657 56.2541L17.0438 55.9794L20.7851 46.5854C20.7851 46.5854 21.0227 46.0361 21.2602 45.267H32.7811C36.2849 45.267 37.532 43.3442 37.532 41.4764C37.532 39.7185 36.2849 37.6858 32.7811 37.6858H24.2295C26.4268 32.0824 30.4651 22.0292 32.6624 16.4258C35.0378 22.3588 42.6986 41.6961 42.6986 41.6961L44.599 46.4755L48.2809 55.8146C48.756 56.9682 49.7062 59.2755 53.0912 59.2755C55.8823 59.2755 57.367 57.4627 57.367 55.5948C57.367 54.6609 57.0107 53.5622 56.6544 52.7931C56.7137 52.9579 38.7198 8.35022 38.7198 8.35022ZM168.538 24.9408C171.032 24.9408 172.279 25.4901 173.526 26.0944C174.536 26.5339 175.605 27.0283 177.03 27.0283C179.405 27.0283 181.068 25.0506 181.068 23.2378C181.068 19.667 176.02 17.2498 168.538 17.2498C154.582 17.2498 148.347 27.8524 148.347 38.3451C148.347 48.8378 154.582 59.4403 168.538 59.4403C176.614 59.4403 180.831 56.3639 180.831 53.2876C180.831 51.0352 179.287 49.497 176.971 49.497C175.783 49.497 174.892 49.9365 173.942 50.376C172.695 50.9803 171.21 51.6944 168.597 51.6944C159.986 51.6944 157.73 43.3442 157.73 38.4C157.67 33.291 159.927 24.9408 168.538 24.9408ZM242.117 17.1948C229.171 17.1948 222.342 27.7974 222.342 38.2901C222.342 48.7828 229.112 59.3854 242.117 59.3854C255.123 59.3854 261.893 48.7828 261.893 38.2901C261.893 27.7974 255.123 17.1948 242.117 17.1948ZM242.117 51.5846C234.397 51.5846 231.725 44.4429 231.725 38.2901C231.725 32.1373 234.456 24.9957 242.117 24.9957C249.837 24.9957 252.569 32.1373 252.569 38.2901C252.569 44.388 249.837 51.5846 242.117 51.5846ZM143.417 37.3013C143.417 27.4129 136.172 17.1948 124.058 17.1948C110.815 17.1948 103.926 27.7974 103.926 38.2901C103.926 48.0137 109.33 59.3854 124.473 59.3854C132.728 59.3854 142.586 54.4412 142.586 50.321C142.586 47.7391 140.686 46.3657 138.845 46.3657C137.538 46.3657 136.469 47.1348 135.163 48.0687C133.084 49.6069 130.174 51.6395 124.533 51.6395C118.178 51.6395 113.843 47.7391 113.309 41.9159H138.31C141.814 41.8609 143.417 40.3777 143.417 37.3013ZM113.309 34.8292C113.665 31.4232 115.506 24.6661 123.998 24.9408C130.828 24.9408 133.559 30.4893 133.975 34.8292H113.309Z" fill="white"/>
</svg>
