<svg width="378" height="129" viewBox="0 0 378 129" fill="none" xmlns="http://www.w3.org/2000/svg">
<path d="M335.236 54.7916C337.652 68.1383 328.822 82.3143 312.334 94.8583C312.177 94.9783 312.345 95.2156 312.51 95.1076C325.656 86.5156 339.576 76.8849 349.006 64.0983C352.382 59.5196 355.23 54.0249 355.73 48.2703C356.664 37.5276 349.488 28.2342 340.49 23.1862C334.5 19.8236 327.918 17.7129 321.241 16.2022C309.612 13.5542 297.64 12.7142 285.736 12.8716C279.686 12.9502 273.64 13.2769 267.616 13.8489C261.801 14.4009 255.985 15.1303 250.232 16.1343C244.522 17.1316 238.841 18.2329 233.208 19.6009C232.597 19.7502 231.986 19.8996 231.376 20.0529C231.193 20.0996 231.24 20.3743 231.43 20.3556C286.038 15.1876 330.596 29.1569 335.236 54.7916Z" fill="white"/>
<path d="M286.384 6.3632C286.195 6.3712 286.157 6.09786 286.343 6.0592C290.547 5.20986 294.773 4.4592 299.008 3.7792C305.745 2.69386 312.517 1.79253 319.311 1.13786C330.999 0.00853135 343.169 -0.666138 354.885 1.00453C357.517 1.38186 360.131 1.90319 362.689 2.62586C369.071 4.42986 375.613 7.86719 377.379 14.7259C378.532 19.2099 377.831 23.9885 376.436 28.3312C373.724 36.7739 368.436 44.3059 362.835 51.0699C362.487 51.4912 362.135 51.9085 361.783 52.3245C361.671 52.4552 361.46 52.3339 361.521 52.1712C363.844 46.0539 364.859 39.1099 363.665 32.6392C361.904 23.0939 354.288 16.0899 345.733 12.3152C335.349 7.73386 323.921 6.61386 312.695 6.15786C303.929 5.7992 295.145 5.96986 286.384 6.3632Z" fill="white"/>
<path d="M157.78 95.2955L169.68 110.999H126.745L113.155 128.937H93.452L153.816 49.2675L214.18 128.937H194.476L153.816 75.2715L138.644 95.2955H157.78ZM238.485 78.4261H254.189V128.938H238.485V78.4261ZM199.325 53.7701H293.349V69.4741H199.325V53.7701ZM88.3133 106.219C88.3133 118.746 78.1213 128.937 65.5947 128.937L0 128.938V108.142H15.704V113.233H65.5947C69.468 113.233 72.608 110.094 72.608 106.219C72.608 102.346 69.468 99.2075 65.5947 99.2075H0V83.5021L52.724 83.5008C56.596 83.5008 59.736 80.3621 59.736 76.4888C59.736 72.6141 56.596 69.4755 52.724 69.4755H15.704V74.5661H0V53.7701H52.724C65.2507 53.7701 75.4413 63.9621 75.4413 76.4888C75.4413 79.5088 74.844 82.3901 73.7693 85.0288C82.268 88.3195 88.3133 96.5741 88.3133 106.219Z" fill="white"/>
</svg>
