<svg width="850" height="139" viewBox="0 0 850 139" fill="none" xmlns="http://www.w3.org/2000/svg">
<path d="M739.474 86.8958V134.376H766.093V87.5158C766.093 69.8258 772.978 63.9288 785.161 63.9288H794.549V40.3423H782.992C755.12 40.3423 739.474 57.4125 739.474 86.8958Z" fill="white"/>
<path d="M363.787 86.8958V134.376H390.394V87.5158C390.394 69.8258 397.283 63.9288 409.491 63.9288H418.867V40.3423H407.301C379.438 40.3423 363.787 57.4125 363.787 86.8958Z" fill="white"/>
<path d="M804.896 33.2058C804.896 29.7926 805.23 17.3795 816.162 10.2432C823.672 5.89616 831.516 5.89622 839.653 5.89622H850V26.6893H844.034C839.945 26.6893 835.897 26.9994 833.686 31.0323C832.142 33.2059 832.142 34.4497 832.142 38.4827V41.5862H850V62.9993H832.142V116.998C832.142 116.998 831.517 134.376 816.788 134.376H804.896C804.896 134.376 804.604 35.9991 804.896 33.2058Z" fill="white"/>
<path d="M45.3957 110.17C49.1509 110.17 52.9102 110.48 56.6653 110.17C62.6151 109.86 67.622 109.239 71.3813 104.273C74.5106 100.239 74.5105 96.2052 74.5105 94.3416C74.5105 83.792 66.6832 80.069 62.9281 79.445C60.1075 78.825 54.4748 78.825 47.5862 78.825H28.8024V106.445C28.8024 106.445 29.1153 110.169 32.5593 110.169L45.3957 110.17ZM44.457 55.8624C54.4749 55.8624 61.0463 56.1727 65.1185 54.309C67.622 53.0694 72.0072 49.9659 72.0072 42.5155C72.0072 35.3792 66.9961 32.2758 64.4927 31.6559C60.7333 30.1022 56.0394 30.1024 47.5862 30.1024H28.8024V55.8624H44.457ZM43.2052 5.89592C50.0897 5.89592 57.2912 5.58586 64.1798 6.20592C68.8738 6.82597 82.964 7.75949 93.2949 18.619C98.3018 24.2057 100.809 30.7221 100.809 38.4824C100.809 43.4452 99.8705 54.929 88.5967 62.3794C86.0933 64.2389 84.8415 64.5486 82.3381 65.4824C86.7191 67.342 89.2225 69.2058 90.7913 70.4455C96.1111 73.8587 104.251 81.9286 104.251 97.1355C104.251 100.86 103.626 109.86 97.9887 118.239C85.7802 135.618 63.8669 134.376 58.5429 134.376C52.2843 134.376 46.3344 134.376 40.3858 134.376H18.4713C0.62623 134.376 0 116.066 0 116.066V5.89592H43.2052Z" fill="white"/>
<path d="M217.582 41.2762H244.819V134.376H217.582V41.2762Z" fill="white"/>
<path d="M547.877 88.1354C547.877 99.9287 551.298 106.136 555.053 110.17C558.517 114.204 562.564 115.756 567.904 115.756C573.245 115.756 577 113.894 578.544 112.653C584.177 108.618 587.932 101.171 587.932 87.2058C587.932 85.0323 588.558 71.6894 580.13 64.5489C578.252 62.9993 574.497 60.5158 568.53 60.5158C558.517 60.8259 547.877 67.652 547.877 88.1354ZM614.886 5.89627V134.376H587.932C587.932 134.066 587.932 127.549 588.558 123.515C586.388 127.859 584.51 129.721 582.633 131.273C575.415 137.48 564.775 137.48 562.271 137.48C559.434 137.48 551.924 137.48 544.748 134.066C534.108 128.79 520.631 115.756 520.631 88.7554C520.631 85.3422 520.965 76.6519 524.094 67.6519C530.019 50.276 543.788 38.4828 562.897 38.4828C573.245 38.4828 580.13 42.2059 583.551 44.6893C585.428 46.5488 586.388 48.1026 587.014 49.0323V22.6563C587.014 22.6563 586.68 5.89627 604.538 5.89627H614.886Z" fill="white"/>
<path d="M178.449 76.6516C178.449 76.0316 178.449 74.4823 177.823 72.6186C175.946 64.2385 168.431 59.276 159.978 59.276C151.212 59.276 144.323 64.2388 141.194 72.309C140.568 74.1726 140.255 76.3418 139.942 76.9616L178.449 76.6516ZM140.255 95.8956C140.255 100.239 141.507 103.653 144.01 107.377C149.334 115.756 157.787 116.377 161.23 116.377C171.248 116.377 175.32 111.101 177.823 107.687H205.687C195.356 135.928 170.309 138.1 159.978 138.1C151.525 137.79 145.262 136.238 142.133 134.997C122.41 127.859 112.392 109.239 112.392 89.0651C112.392 83.7924 113.018 68.2757 123.036 55.2386C128.047 48.7221 139.316 38.1725 160.291 38.1725C163.42 38.1725 171.248 38.4825 179.701 41.8956C189.093 45.9286 200.988 55.2386 205.373 77.5856C205.686 80.069 206.938 85.9615 206.938 92.7921C206.938 93.7219 206.938 94.9616 206.625 95.8956H140.255Z" fill="white"/>
<path d="M324.337 76.6516C324.337 76.0316 324.337 74.4823 323.711 72.6186C321.834 64.2385 314.319 59.276 305.866 59.276C297.104 59.276 289.902 64.2388 287.082 72.309C286.456 74.1726 285.83 76.3418 285.83 76.9616L324.337 76.6516ZM285.83 95.8956C286.143 100.239 287.399 103.653 289.589 107.377C295.222 115.756 303.362 116.377 306.809 116.377C316.827 116.377 321.208 111.101 323.398 107.687H351.261C341.244 135.928 316.201 138.1 305.866 138.1C297.104 137.79 291.154 136.238 288.024 134.997C267.984 127.859 257.967 109.239 257.967 89.0651C257.967 83.7924 258.592 68.2757 268.927 55.2386C273.934 48.7221 285.204 38.1725 305.866 38.1725C309.312 38.1725 317.14 38.4825 325.28 41.8956C334.672 45.9286 346.88 55.2386 350.948 77.5856C351.261 80.069 352.513 85.9615 352.513 92.7921C352.513 93.7219 352.513 94.9616 352.2 95.8956H285.83Z" fill="white"/>
<path d="M483.998 69.2054C483.705 67.3418 483.08 66.1021 482.12 64.5484C480.242 61.1353 475.569 58.0319 467.391 58.0319C464.888 58.0319 463.01 58.3419 462.385 58.3419C456.46 59.8956 454.248 63.6185 454.248 66.4119C454.248 69.5152 457.086 71.069 458.004 71.3789C459.255 72.3087 463.97 73.2385 468.643 74.4823L478.699 76.3419L487.461 78.2054C496.849 80.6888 504.651 83.4821 509.032 92.7919C509.658 94.6514 511.535 99.3078 511.535 104.894C511.535 107.997 511.243 115.445 505.903 122.894C500.604 130.963 490.256 137.48 469.603 137.48C449.242 137.48 438.936 131.273 432.969 124.135C430.174 120.411 426.419 115.135 425.459 104.274H451.453C451.453 105.205 451.745 108.308 453.622 111.101C455.834 114.204 461.133 117.618 470.229 117.618C471.188 117.618 473.358 117.618 475.862 116.997C476.821 116.687 484.331 114.824 484.331 108.308C484.331 101.791 478.365 100.86 468.351 98.6871C450.827 94.6516 442.065 92.7921 435.473 86.8954C428.588 80.6888 428.296 72.3087 428.296 69.2054C428.296 61.1352 431.425 55.8622 432.969 53.0689C438.31 45.3085 447.99 38.4823 467.725 38.4823C472.106 38.4823 491.508 38.1725 502.773 51.8254C508.74 58.9658 509.366 65.7922 509.366 69.2054H483.998Z" fill="white"/>
<path d="M655.233 88.1354C655.233 109.239 667.166 115.756 677.472 115.756C679.057 115.756 683.438 115.446 687.485 113.584C693.744 110.17 699.711 102.722 699.711 87.2058C699.711 85.6521 699.711 79.7555 697.833 74.4828C696.248 69.5158 691.574 59.8958 677.472 59.8958C667.166 60.2058 655.233 66.1024 655.233 88.1354ZM710.684 49.3423C721.949 58.6522 727.249 73.5489 727.249 87.5158C727.249 108.308 715.691 128.17 695.33 134.997C691.574 136.238 685.942 137.48 677.18 137.48C673.716 137.48 665.914 137.48 657.111 134.376C637.709 126.928 627.695 108.308 627.695 88.1354C627.695 70.1355 635.539 58.6523 640.212 53.0697C646.179 47.1731 657.736 38.4828 678.098 38.4828C683.438 38.7928 698.125 39.1029 710.684 49.3423Z" fill="white"/>
<path d="M247.01 14.5866C247.01 22.6568 239.808 29.1731 231.046 29.1731C222.593 29.1731 215.392 22.6568 215.392 14.5866C215.392 6.20647 222.593 4.93052e-05 231.046 4.93052e-05C239.808 4.93052e-05 247.01 6.20647 247.01 14.5866Z" fill="white"/>
</svg>
