<svg xmlns="http://www.w3.org/2000/svg" viewBox="0 0 32 32">
  <!-- Circular Static Favicon - Barchart Style -->
  <circle cx="16" cy="16" r="16" fill="#080813"/>
  
  <!-- Stylized Brackets (Nexus Context) -->
  <g stroke="#3B82F6" stroke-width="1.2" fill="none" opacity="0.3" stroke-linecap="round" stroke-linejoin="round">
    <path d="M7 10C7 10 5 10 5 12V15C5 15 4 16 3 16C4 16 5 17 5 17V20C5 22 7 22 7 22" />
    <path d="M25 10C25 10 27 10 27 12V15C27 15 28 16 29 16C28 16 27 17 27 17V20C27 22 25 22 25 22" />
  </g>

  <!-- Data Bars (Exact proportions from Header Logo) -->
  <g stroke-linecap="round" stroke-width="3.2">
    <!-- Bar 1 -->
    <line x1="11.5" y1="21" x2="11.5" y2="16" stroke="#3B82F6" opacity="0.6" />
    <!-- Bar 2 (Central) -->
    <line x1="16" y1="21" x2="16" y2="10" stroke="#22D3EE" />
    <!-- Bar 3 -->
    <line x1="20.5" y1="21" x2="20.5" y2="18" stroke="#3B82F6" opacity="0.8" />
  </g>
  
  <!-- Subtle Central Intelligence Node -->
  <circle cx="16" cy="16" r="0.8" fill="#FFF" opacity="0.5" />
</svg>
