<svg xmlns="http://www.w3.org/2000/svg" viewBox="0 0 32 32">
  <!-- Perfect Circular Static Favicon -->
  <circle cx="16" cy="16" r="16" fill="#080813"/>
  
  <!-- Stylized Brackets (Paths for precision) -->
  <g stroke="#3B82F6" stroke-width="1.5" fill="none" opacity="0.4" stroke-linecap="round" stroke-linejoin="round">
    <!-- Left Bracket { -->
    <path d="M7 10C7 10 5 10 5 12V15C5 15 4 16 3 16C4 16 5 17 5 17V20C5 22 7 22 7 22" />
    <!-- Right Bracket } -->
    <path d="M25 10C25 10 27 10 27 12V15C27 15 28 16 29 16C28 16 27 17 27 17V20C27 22 25 22 25 22" />
  </g>

  <!-- Growth Bars (Balanced Proportions) -->
  <g stroke-linecap="round" stroke-width="3.5">
    <!-- Bar 1: Smallest -->
    <line x1="11.5" y1="21" x2="11.5" y2="17" stroke="#3B82F6" opacity="0.6" />
    <!-- Bar 2: Medium -->
    <line x1="16" y1="21" x2="16" y2="13" stroke="#22D3EE" />
    <!-- Bar 3: Largest -->
    <line x1="20.5" y1="21" x2="20.5" y2="9" stroke="#3B82F6" />
  </g>
</svg>
