<svg xmlns="http://www.w3.org/2000/svg" viewBox="0 0 32 32">
  <circle cx="16" cy="16" r="16" fill="#080813"/>
  <!-- Classic Vector Brackets -->
  <path d="M7 10C7 10 5 10 5 12V15C5 15 4 16 3 16C4 16 5 17 5 17V20C5 22 7 22 7 22" stroke="#3B82F6" stroke-width="1.2" fill="none" opacity="0.3"/>
  <path d="M25 10C25 10 27 10 27 12V15C27 15 28 16 29 16C28 16 27 17 27 17V20C27 22 25 22 25 22" stroke="#3B82F6" stroke-width="1.2" fill="none" opacity="0.3"/>
  <!-- Neural Bars -->
  <g fill-opacity="0.8">
    <rect x="10" y="19" width="3" height="3" rx="1.5" fill="#3B82F6"/>
    <rect x="14.5" y="14" width="3" height="8" rx="1.5" fill="#22D3EE"/>
    <rect x="19" y="9" width="3" height="13" rx="1.5" fill="#3B82F6"/>
  </g>
  <!-- Synaptic Node -->
  <circle cx="16" cy="14" r="1.5" fill="#FFF" opacity="0.8"/>
</svg>