<svg width="568" height="157" viewBox="0 0 568 157" fill="none" xmlns="http://www.w3.org/2000/svg">
<g clip-path="url(#clip0_1_345)">
<path fill-rule="evenodd" clip-rule="evenodd" d="M78.3335 0C35.0551 0 0 35.078 0 78.3847C0 121.691 35.0551 156.766 78.3335 156.766C121.612 156.766 156.664 121.688 156.664 78.3847V78.2774C156.61 108.527 132.48 132.993 102.729 132.993C72.9217 132.993 48.7912 108.474 48.7912 78.17C48.7912 47.92 72.9217 23.3664 102.729 23.3664C132.003 23.3664 155.869 47.0896 156.664 76.6481C155.711 34.1244 121.025 0 78.3335 0Z" fill="white"/>
<path fill-rule="evenodd" clip-rule="evenodd" d="M102.357 25.1536C131.208 25.1536 154.647 48.9305 154.647 78.2774C154.647 107.624 131.271 131.398 102.357 131.398C83.7958 131.398 67.4595 121.581 58.179 106.721C63.0573 109.46 68.5619 110.886 74.1556 110.861C79.1368 110.85 84.0499 109.701 88.5202 107.502C92.9905 105.303 96.9 102.111 99.9509 98.1711C103.002 94.2308 105.113 89.6455 106.125 84.7648C107.136 79.884 107.021 74.8367 105.787 70.0074C104.553 65.1781 102.234 60.6943 99.0063 56.8979C95.7784 53.1015 91.727 50.0926 87.1608 48.1005C82.5946 46.1085 77.6341 45.1858 72.6576 45.403C67.681 45.6202 62.8196 46.9714 58.444 49.3536C67.7782 34.8128 83.9536 25.1536 102.357 25.1536Z" fill="#9A9A9A"/>
<path fill-rule="evenodd" clip-rule="evenodd" d="M93.1804 25.9493C116.781 26.164 138.579 48.7694 138.579 77.9048C138.579 107.04 118.797 130.725 94.3511 130.725C80.3499 128.708 66.6674 120.059 58.2894 106.728C62.6556 109.156 67.5196 110.552 72.5085 110.808C77.4973 111.065 82.4786 110.174 87.0703 108.206C91.662 106.237 95.7422 103.242 98.9981 99.4511C102.254 95.66 104.599 91.1732 105.854 86.3347C107.108 81.4962 107.239 76.4345 106.235 71.5377C105.232 66.6408 103.121 62.0389 100.065 58.0848C97.0092 54.1307 93.0889 50.9293 88.6048 48.7262C84.1207 46.5231 79.192 45.3767 74.1966 45.375C68.7454 45.3574 63.3792 46.7265 58.6018 49.3536C66.7716 36.5115 79.9776 28.2859 93.1804 25.9493Z" fill="#C8CDC3"/>
<path fill-rule="evenodd" clip-rule="evenodd" d="M196.332 33.6444H219.721V58.217H240.725C237.383 64.6902 233.988 71.1633 230.646 77.6396H219.775V107.201C219.775 112.137 223.009 113.993 226.14 113.144L232.451 111.072L238.601 125.042L230.646 129.551C227.572 131.196 223.805 131.196 219.775 131.196C212.085 130.984 206.465 128.651 202.378 124.776C198.56 121.167 196.383 116.867 196.383 110.551C196.33 84.9158 196.313 59.2801 196.332 33.6444Z" fill="white"/>
<path fill-rule="evenodd" clip-rule="evenodd" d="M267.878 110.119C272.384 115.373 277.9 117.018 284.637 114.097C288.456 112.56 292.274 111.072 296.092 109.535C297.948 114.587 299.753 119.617 301.608 124.66C292.22 128.638 286.332 130.817 273.552 130.868C264.537 130.71 256.793 127.896 252.072 122.696C243.959 112.667 240.769 100.412 243.748 85.2305C246.663 75.1987 252.391 65.5932 265.385 60.2853C277.424 56.7298 288.456 57.3676 297.206 66.6005C304.735 75.8902 302.35 86.9261 297.099 93.1908C288.986 101.151 277.796 103.431 265.597 103.961C265.755 106.298 266.392 108.262 267.878 110.119ZM278.165 84.8579C281.242 82.256 283.577 78.1164 279.97 74.7219C276.045 72.2274 272.066 74.1378 269.576 76.6323C265.597 80.6109 264.694 85.3884 264.271 90.589C268.566 89.7932 273.341 88.9438 278.165 84.8579Z" fill="white"/>
<path fill-rule="evenodd" clip-rule="evenodd" d="M461.342 110.119C465.848 115.373 471.364 117.018 478.101 114.097C481.92 112.56 485.738 111.072 489.556 109.535C491.412 114.587 493.216 119.617 495.072 124.66C485.684 128.638 479.796 130.817 467.016 130.868C458 130.71 450.257 127.896 445.536 122.696C437.423 112.667 434.239 100.406 437.212 85.2305C440.127 75.1987 445.855 65.5932 458.849 60.2853C470.888 56.7298 481.92 57.3676 490.67 66.6005C498.199 75.8902 495.813 86.9261 490.563 93.1908C482.45 101.151 471.26 103.431 459.061 103.961C459.225 106.298 459.862 108.262 461.342 110.119ZM471.629 84.8579C474.706 82.256 477.038 78.1164 473.434 74.7219C469.509 72.2274 465.545 74.1378 463.04 76.6323C459.061 80.6109 458.158 85.3884 457.735 90.589C462.036 89.7932 466.811 88.9438 471.636 84.8579H471.629Z" fill="white"/>
<path fill-rule="evenodd" clip-rule="evenodd" d="M311.472 58.217V131.186H335.77V82.8401C338.635 78.9657 342.135 77.6395 346.218 77.6395C350.566 77.6395 354.107 79.1805 357.263 82.0444V62.6219C354.082 59.7548 350.951 58.217 346.496 58.217C338.222 58.217 335.041 62.0377 331.065 67.1847V58.217H311.472Z" fill="white"/>
<path fill-rule="evenodd" clip-rule="evenodd" d="M504.573 33.6444H529.234V107.217C529.234 112.152 532.629 114.009 535.917 113.16L541.645 111.357L547.849 125.632L540.638 129.503C537.404 131.149 533.425 131.149 529.18 131.149C521.067 130.937 515.129 128.604 510.831 124.729C506.801 121.12 504.52 116.835 504.52 110.52C504.572 84.9221 504.59 59.2969 504.573 33.6444Z" fill="white"/>
<path fill-rule="evenodd" clip-rule="evenodd" d="M389.487 157.032H365.622V62.8871C373.151 60.2347 380.999 58.4286 389.487 58.217C410.91 58.217 420.67 60.8694 426.723 79.231C430.487 93.4561 428.474 106.986 421.153 119.936C417.01 126.621 409.591 130.725 401.844 131.186C396.963 131.186 392.561 130.498 389.538 129.172C389.487 138.458 389.487 147.745 389.487 157.032ZM389.487 111.71C393.675 113.144 398.714 112.879 401.163 109.907C404.293 105.556 406.786 100.671 406.413 93.5603C405.883 86.9293 404.716 81.0908 400.102 76.6323C396.972 73.8725 392.254 74.2956 389.497 75.8902L389.487 111.71Z" fill="white"/>
</g>
<defs>
<clipPath id="clip0_1_345">
<rect width="568" height="157" fill="white"/>
</clipPath>
</defs>
</svg>
